<svg xmlns="http://www.w3.org/2000/svg" viewBox="0 0 480 480" width="32px" height="32px"><defs><style>.cls-1{fill: hsla(210, 100%, 80%, 0.8);stroke: hsla(210, 75%, 45%, 0.8);stroke-width: 12px;}.cls-1,.cls-2,.cls-3,.cls-4{stroke-miterlimit: 10;}.cls-2{fill: hsla(220, 100%, 50%, 1);}.cls-2,.cls-3{stroke: hsla(210, 100%, 100%, 0.7);}.cls-2,.cls-3{stroke-width: 12px;}.cls-4{stroke-width: 20px;}.cls-3{fill: hsla(210, 100%, 100%, 0.9);}.cls-4{fill: hsla(20, 100%, 50%, 1);stroke: hsla(210, 100%, 100%, 0.8);}</style></defs><g id="Capa_2" data-name="Capa 2"><g id="Capa_2-2" data-name="Capa 2"><rect class="cls-1" x="6" y="6" width="464" height="464" rx="50" /><rect class="cls-2" x="72" y="40" width="220" height="390" rx="40" /><rect class="cls-3" x="112" y="82" width="140" height="290" rx="20" /><circle class="cls-3" cx="185" cy="401" r="15" /><ellipse class="cls-4" cx="319.41" cy="222" rx="59" ry="59" /><path class="cls-4" d="M429.3,380c-2.59-41.06-50.78-73.79-109.89-73.79s-107.3,32.73-109.89,73.79a13.84,13.84,0,0,0-.11,1.59c0,6,4.16,10.85,9.28,10.85H420.13c5.12,0,9.28-4.86,9.28-10.85A11.9,11.9,0,0,0,429.3,380Z" /></g></g></svg>
