<svg xmlns="http://www.w3.org/2000/svg" viewBox="0 0 492 492"><defs><style>.cls-1{fill:#65c8d0;stroke:#00a99d;stroke-width:12px;}.cls-1,.cls-2,.cls-3,.cls-4{stroke-miterlimit:10;}.cls-2{fill:#336468;}.cls-2,.cls-3{stroke:#fff;}.cls-2,.cls-3,.cls-4{stroke-width:8px;}.cls-3{fill:#fff;}.cls-4{fill:#193234;stroke:#65c8d0;}</style></defs><g id="Capa_2" data-name="Capa 2"><g id="Capa_2-2" data-name="Capa 2"><rect class="cls-1" x="6" y="6" width="480" height="480" rx="48.92"/><rect class="cls-2" x="73.41" y="48.66" width="220" height="391.43" rx="39.97"/><rect class="cls-3" x="102.82" y="79.51" width="161.18" height="310.84" rx="20.52"/><circle class="cls-3" cx="183.41" cy="414.06" r="15.71"/><ellipse class="cls-4" cx="319.41" cy="238.34" rx="58.82" ry="59"/><path class="cls-4" d="M429.3,386.4c-2.59-41.06-50.78-73.79-109.89-73.79s-107.3,32.73-109.89,73.79a13.84,13.84,0,0,0-.11,1.59c0,6,4.16,10.85,9.28,10.85H420.13c5.12,0,9.28-4.86,9.28-10.85A11.9,11.9,0,0,0,429.3,386.4Z"/></g></g></svg>